<svg width="25" height="13" viewBox="0 0 25 13" fill="none" xmlns="http://www.w3.org/2000/svg">
<g clip-path="url(#clip0)">
<rect x="0.732422" width="20.3129" height="13.0002" rx="1.21877" fill="#EE2A23"/>
<path d="M4.86186 3.65614C5.33661 3.65614 5.48579 3.93376 5.61095 4.21094C5.66352 4.32864 6.89723 7.08302 6.93433 7.1657C6.9442 7.18876 6.93753 7.22662 6.89403 7.24032C6.85026 7.25381 6.20926 7.45702 6.17376 7.4679C6.13827 7.47899 6.09851 7.46289 6.0857 7.43396C6.07236 7.40546 5.80629 6.80497 5.7764 6.73796H3.94785C3.91903 6.80497 3.64976 7.40676 3.63775 7.43396C3.62548 7.46159 3.58732 7.4803 3.54942 7.4679C3.51153 7.45571 2.86812 7.25251 2.82969 7.24032C2.79286 7.22857 2.77605 7.19442 2.78886 7.1657C2.83423 7.06257 4.04926 4.35235 4.11117 4.21094C4.23179 3.93789 4.38604 3.65614 4.86186 3.65614ZM2.69119 8.58466C2.65276 8.58466 2.62207 8.61077 2.62207 8.64254V9.28631C2.62207 9.31808 2.65276 9.34375 2.69119 9.34375H7.03066C7.06989 9.34375 7.10058 9.31808 7.10058 9.28631V8.64254C7.10058 8.61077 7.06989 8.58466 7.03066 8.58466H2.69119ZM4.85759 4.55556L4.23953 6.06873H5.48579L4.8656 4.55556H4.85759ZM14.1319 7.03668C14.0409 7.0617 13.9809 7.06779 13.9094 7.06779C13.7615 7.06779 13.6796 7.02015 13.6796 6.89657C13.6796 6.76777 13.7837 6.72469 13.9881 6.72469C14.038 6.72469 14.0871 6.73057 14.11 6.73709V6.82934C14.11 6.92877 14.1167 6.99404 14.1319 7.03668ZM14.6574 7.18419C14.5482 7.04908 14.5197 6.96945 14.5197 6.7991V6.45317C14.5197 6.26693 14.493 6.19971 14.4327 6.13182C14.3486 6.03566 14.2085 5.99389 13.951 5.99389C13.7687 5.99389 13.5918 6.00999 13.4205 6.04567L13.4824 6.29152C13.5982 6.27825 13.7196 6.26693 13.8053 6.26693C14.0788 6.26693 14.11 6.29913 14.11 6.46644V6.52888C14.0492 6.51561 13.9809 6.50604 13.9016 6.50604C13.4898 6.50604 13.2723 6.6703 13.2723 6.94226C13.2723 7.19724 13.5048 7.33627 13.7879 7.33627C13.8936 7.33627 14.0041 7.32039 14.0916 7.29123C14.1445 7.27252 14.1674 7.26143 14.2357 7.22531C14.2768 7.27405 14.3593 7.32387 14.3929 7.33322L14.6574 7.18419ZM18.7305 7.03668C18.639 7.0617 18.58 7.06779 18.508 7.06779C18.3596 7.06779 18.2766 7.02015 18.2766 6.89657C18.2766 6.76777 18.382 6.72469 18.5869 6.72469C18.6368 6.72469 18.6862 6.73057 18.7086 6.73709V6.82934C18.7086 6.92877 18.715 6.99404 18.7305 7.03668ZM19.2565 7.18419C19.1466 7.04908 19.1185 6.96945 19.1185 6.7991V6.45317C19.1185 6.26693 19.0913 6.19971 19.0305 6.13182C18.9475 6.03566 18.8071 5.99389 18.5488 5.99389C18.3668 5.99389 18.1888 6.00999 18.0175 6.04567L18.0786 6.29152C18.1947 6.27825 18.3163 6.26693 18.4044 6.26693C18.6763 6.26693 18.7086 6.29913 18.7086 6.46644V6.52888C18.6478 6.51561 18.58 6.50604 18.4991 6.50604C18.0868 6.50604 17.8685 6.6703 17.8685 6.94226C17.8685 7.19724 18.1015 7.33627 18.386 7.33627C18.493 7.33627 18.6024 7.32039 18.6892 7.29123C18.7428 7.27252 18.7649 7.26143 18.8333 7.22531C18.8749 7.27405 18.9573 7.32387 18.9912 7.33322L19.2565 7.18419ZM22.4626 7.30733C22.4626 7.30733 22.2368 6.91506 22.1816 6.82586C22.1194 6.72534 22.0618 6.65594 21.9348 6.63092V6.62526C22.0199 6.61199 22.0877 6.57 22.1619 6.44164C22.232 6.31654 22.2529 6.28956 22.2942 6.25975C22.3348 6.23016 22.3903 6.24083 22.3903 6.24083L22.4111 6.00955C22.3521 6.00303 22.2867 6.00281 22.2192 6.00585C22.1071 6.01129 22.0492 6.03762 21.994 6.08287C21.9508 6.11747 21.9214 6.16925 21.8851 6.22864C21.8467 6.29348 21.8163 6.34569 21.7762 6.41161C21.7365 6.47928 21.7178 6.50974 21.6108 6.50974H21.5411V5.48522H21.1288V7.30733H21.5411V6.78343L21.5974 6.78256C21.7157 6.78256 21.7365 6.80671 21.7989 6.90832C21.872 7.0295 22.0121 7.30733 22.0121 7.30733H22.4626ZM10.8476 7.30733H11.3234L10.6037 5.51568C10.5279 5.49501 10.4342 5.48217 10.3342 5.48217C10.225 5.48217 10.1861 5.49392 10.1007 5.51568L9.33904 7.30733H9.79564C9.79564 7.30733 9.85729 7.15025 9.92987 6.95553H10.7187C10.7892 7.15003 10.8476 7.30733 10.8476 7.30733ZM10.0457 6.65507C10.0457 6.65507 10.1775 6.29543 10.1981 6.23952C10.2504 6.09462 10.3299 5.86444 10.3299 5.86444H10.343C10.343 5.86444 10.4166 6.10289 10.4647 6.23691C10.4828 6.29021 10.6088 6.65507 10.6088 6.65507H10.0457ZM15.3598 6.45012C15.2143 6.45012 15.0961 6.54694 15.0961 6.66551C15.0961 6.78496 15.2143 6.88112 15.3598 6.88112C15.5055 6.88112 15.6232 6.78496 15.6232 6.66551C15.6232 6.54694 15.5055 6.45012 15.3598 6.45012ZM11.8884 5.48522H11.475V7.30712H11.8884V5.48522ZM20.1011 6.28347C20.3296 6.28738 20.3579 6.32589 20.3579 6.48211V7.30733H20.7675V6.45317C20.7675 6.26693 20.7408 6.19971 20.68 6.13182C20.5959 6.03566 20.4307 5.99389 20.1513 5.99389C19.8748 5.99389 19.6987 6.01782 19.4721 6.07286V7.30733H19.886V6.29913C19.9947 6.2863 20.0139 6.28347 20.1011 6.28347ZM12.9107 5.4528C12.6524 5.4528 12.5118 5.49457 12.4291 5.59052C12.3682 5.65862 12.3413 5.72737 12.3413 5.91404V6.07286H12.136V6.34526H12.3413V7.30733H12.7512L12.7501 6.34526H13.1587V6.07286H12.7501L12.7512 5.92688C12.7512 5.75979 12.7824 5.72737 13.0562 5.72737C13.0858 5.72737 13.1192 5.72868 13.1547 5.73085L13.2192 5.46912C13.1181 5.45824 13.0146 5.4528 12.9107 5.4528ZM16.1996 5.46977C16.3402 5.46303 16.6546 5.45345 16.8518 5.45345C16.8878 5.45345 16.9252 5.45367 16.9625 5.45519C17.3503 5.45519 17.5726 5.68538 17.5726 5.9556C17.5726 6.13944 17.4693 6.26149 17.2273 6.33416C17.512 6.38551 17.6612 6.56674 17.6612 6.78844C17.6612 6.95118 17.6049 7.08041 17.5016 7.16853C17.3676 7.276 17.1648 7.33627 16.8948 7.33627C16.6546 7.33627 16.353 7.33018 16.1996 7.32278V5.46977ZM16.8518 5.76827C16.7835 5.76827 16.6989 5.76936 16.6151 5.77175V6.20928H16.8521C16.946 6.20928 17.0215 6.18796 17.073 6.14684C17.1221 6.10811 17.1477 6.05328 17.1477 5.98823C17.1477 5.84834 17.0549 5.76914 16.8822 5.76827H16.8518ZM16.8603 7.0221H16.8782C17.0936 7.0221 17.2254 6.92877 17.227 6.74079C17.2249 6.67335 17.1931 6.61112 17.1363 6.56609C17.0741 6.51518 16.986 6.48863 16.8827 6.48863H16.6151V7.02015C16.6906 7.02145 16.7739 7.02167 16.8603 7.0221Z" fill="white"/>
</g>
<defs>
<clipPath id="clip0">
<path d="M0.732422 0H24.3521V13.0002H0.732422V0Z" fill="white"/>
</clipPath>
</defs>
</svg>
