<svg width="24" height="13" viewBox="0 0 24 13" fill="none" xmlns="http://www.w3.org/2000/svg">
<g clip-path="url(#clip0)">
<rect x="0.0839844" width="20.3129" height="13.0002" rx="1.21877" fill="#888888"/>
<path d="M6.19794 4.1419C5.98756 4.35664 5.65094 4.52601 5.31432 4.50181C5.27224 4.21146 5.43705 3.90297 5.6299 3.71242C5.84029 3.49164 6.20846 3.33436 6.50651 3.32227C6.54158 3.62471 6.40482 3.92111 6.19794 4.1419ZM6.50301 4.55928C6.01561 4.53508 5.59834 4.79821 5.36692 4.79821C5.13199 4.79821 4.77783 4.57138 4.39213 4.57743C3.8907 4.58348 3.42435 4.82846 3.16838 5.21862C2.64241 5.99893 3.03162 7.15429 3.54006 7.78943C3.78902 8.10398 4.08706 8.44877 4.47979 8.43667C4.85147 8.42457 4.99874 8.22798 5.44757 8.22798C5.8999 8.22798 6.02964 8.43667 6.42236 8.43062C6.8291 8.42457 7.08508 8.11607 7.33403 7.80153C7.61805 7.44464 7.73377 7.09682 7.74078 7.07868C7.73377 7.07263 6.95534 6.81554 6.94832 6.04128C6.94131 5.39404 7.56195 5.08554 7.59 5.06739C7.23936 4.61977 6.69235 4.57138 6.50301 4.55928ZM9.31868 3.68218V8.39735H10.1672V6.7853H11.3419C12.4149 6.7853 13.1688 6.15016 13.1688 5.23072C13.1688 4.31127 12.4289 3.68218 11.37 3.68218H9.31868ZM10.1672 4.29917H11.1455C11.8819 4.29917 12.3027 4.63792 12.3027 5.23374C12.3027 5.82956 11.8819 6.17133 11.142 6.17133H10.1672V4.29917ZM14.7186 8.43364C15.2516 8.43364 15.746 8.20076 15.9704 7.83177H15.9879V8.39735H16.7734V6.05035C16.7734 5.36984 16.1422 4.93129 15.1709 4.93129C14.2698 4.93129 13.6036 5.37589 13.579 5.98684H14.3434C14.4065 5.69649 14.7186 5.50594 15.1464 5.50594C15.6653 5.50594 15.9564 5.71463 15.9564 6.09874V6.35885L14.8974 6.41329C13.9121 6.4647 13.3791 6.81252 13.3791 7.41742C13.3791 8.02836 13.9297 8.43364 14.7186 8.43364ZM14.9465 7.87411C14.4942 7.87411 14.2067 7.6866 14.2067 7.39927C14.2067 7.10287 14.4837 6.93048 15.0131 6.90325L15.9564 6.85184V7.11799C15.9564 7.55957 15.5216 7.87411 14.9465 7.87411ZM17.8218 9.67973C18.6493 9.67973 19.0385 9.40753 19.3787 8.58184L20.8689 4.97666H20.0063L19.007 7.76221H18.9895L17.9901 4.97666H17.103L18.5406 8.40945L18.4635 8.61814C18.3338 8.972 18.1234 9.1081 17.7482 9.1081C17.6816 9.1081 17.5518 9.10205 17.4992 9.09601V9.66158C17.5483 9.67368 17.7587 9.67973 17.8218 9.67973Z" fill="white"/>
</g>
<defs>
<clipPath id="clip0">
<path d="M0.0839844 0H23.7036V13.0002H0.0839844V0Z" fill="white"/>
</clipPath>
</defs>
</svg>
