<svg width="25" height="13" viewBox="0 0 25 13" fill="none" xmlns="http://www.w3.org/2000/svg">
<g clip-path="url(#clip0)">
<rect x="0.461914" width="20.3129" height="13.0002" rx="1.21877" fill="#0F3560"/>
<path d="M14.3382 9.69261H10.2051V3.30469H14.3382V9.69261Z" fill="#6C6BBD"/>
<path d="M10.4703 6.49992C10.4703 5.2041 11.1758 4.04983 12.2744 3.30596C11.471 2.76201 10.4571 2.43735 9.35518 2.43735C6.74648 2.43735 4.63184 4.2562 4.63184 6.49992C4.63184 8.74365 6.74648 10.5625 9.35518 10.5625C10.4571 10.5625 11.471 10.2378 12.2744 9.69389C11.1758 8.95002 10.4703 7.79574 10.4703 6.49992Z" fill="#EB001B"/>
<path d="M19.9124 6.49992C19.9124 8.74365 17.7978 10.5625 15.1891 10.5625C14.0871 10.5625 13.0732 10.2378 12.2695 9.69389C13.3685 8.95002 14.0739 7.79574 14.0739 6.49992C14.0739 5.2041 13.3685 4.04983 12.2695 3.30596C13.0732 2.76201 14.0871 2.43735 15.1891 2.43735C17.7978 2.43735 19.9124 4.2562 19.9124 6.49992Z" fill="#0099DF"/>
<path d="M16.531 5.80602C16.5986 5.80602 16.6958 5.81714 16.7701 5.84225L16.6666 6.11433C16.5957 6.08922 16.5247 6.08095 16.4567 6.08095C16.2372 6.08095 16.1274 6.20301 16.1274 6.42232V7.16671H15.7914V5.83939H16.1241V6.00054C16.2113 5.88389 16.3373 5.80602 16.531 5.80602ZM15.2899 6.1032H14.7411V6.70298C14.7411 6.83615 14.7958 6.92515 14.9639 6.92515C15.0512 6.92515 15.1609 6.90004 15.2607 6.85014L15.3575 7.0971C15.2511 7.16099 15.0833 7.20008 14.9381 7.20008C14.5407 7.20008 14.4022 7.01669 14.4022 6.70838V6.1032H14.0887V5.83939H14.4022V5.43668H14.7411V5.83939H15.2899V6.1032ZM10.992 6.3864C11.0278 6.19474 11.1631 6.06411 11.4022 6.06411C11.6184 6.06411 11.7574 6.18076 11.7929 6.3864H10.992ZM12.1418 6.50305C12.1384 6.08922 11.8413 5.80602 11.4085 5.80602C10.9565 5.80602 10.6401 6.08922 10.6401 6.50305C10.6401 6.92483 10.9694 7.19977 11.4314 7.19977C11.6639 7.19977 11.8768 7.14987 12.0641 7.01383L11.8993 6.79992C11.7703 6.88891 11.6055 6.93882 11.4506 6.93882C11.2344 6.93882 11.0374 6.85268 10.989 6.61398H12.1351C12.1384 6.57774 12.1418 6.54183 12.1418 6.50305ZM13.6171 6.17821C13.5236 6.12799 13.3333 6.06411 13.1363 6.06411C12.9523 6.06411 12.8425 6.12259 12.8425 6.21985C12.8425 6.30853 12.9585 6.33364 13.1038 6.35017L13.262 6.36956C13.5979 6.41151 13.8012 6.53356 13.8012 6.76686C13.8012 7.01955 13.5429 7.20008 13.0975 7.20008C12.8454 7.20008 12.613 7.14446 12.4289 7.02781L12.5871 6.80278C12.7002 6.87779 12.8684 6.94168 13.1008 6.94168C13.33 6.94168 13.4527 6.88351 13.4527 6.78053C13.4527 6.70584 13.3655 6.66388 13.1814 6.64195L13.0232 6.62256C12.6777 6.58061 12.4903 6.44743 12.4903 6.23098C12.4903 5.96717 12.7423 5.80602 13.133 5.80602C13.3784 5.80602 13.6013 5.85338 13.7624 5.94492L13.6171 6.17821ZM17.7584 6.08032C17.6893 6.08032 17.6253 6.09081 17.5658 6.11147C17.5067 6.13244 17.4553 6.16169 17.4121 6.19919C17.3688 6.2367 17.3348 6.28183 17.3101 6.33428C17.2853 6.38672 17.2731 6.44457 17.2731 6.5075C17.2731 6.57075 17.2853 6.62828 17.3101 6.68073C17.3348 6.73317 17.3688 6.7783 17.4121 6.81581C17.4553 6.85332 17.5067 6.88256 17.5658 6.90354C17.6253 6.92451 17.6893 6.93468 17.7584 6.93468C17.8275 6.93468 17.8918 6.92451 17.9509 6.90354C18.0104 6.88256 18.0622 6.85332 18.1054 6.81581C18.1494 6.7783 18.1834 6.73317 18.2085 6.68073C18.2333 6.62828 18.2455 6.57075 18.2455 6.5075C18.2455 6.44457 18.2333 6.38672 18.2085 6.33428C18.1834 6.28183 18.1494 6.2367 18.1054 6.19919C18.0622 6.16169 18.0104 6.13244 17.9509 6.11147C17.8918 6.09081 17.8275 6.08032 17.7584 6.08032ZM17.7584 5.80602C17.8781 5.80602 17.989 5.82382 18.091 5.85973C18.193 5.89533 18.2814 5.9446 18.3556 6.00721C18.4303 6.06983 18.4883 6.14389 18.5305 6.22907C18.5726 6.31457 18.5937 6.40738 18.5937 6.5075C18.5937 6.60762 18.5726 6.70043 18.5305 6.78593C18.4883 6.87112 18.4303 6.94549 18.3556 7.00811C18.2814 7.07072 18.193 7.11967 18.091 7.15559C17.989 7.19119 17.8781 7.20898 17.7584 7.20898C17.6386 7.20898 17.5278 7.19119 17.4258 7.15559C17.3237 7.11967 17.2362 7.07072 17.1622 7.00811C17.0883 6.94549 17.0303 6.87112 16.9882 6.78593C16.946 6.70043 16.925 6.60762 16.925 6.5075C16.925 6.40738 16.946 6.31457 16.9882 6.22907C17.0303 6.14389 17.0883 6.06983 17.1622 6.00721C17.2362 5.9446 17.3237 5.89533 17.4258 5.85973C17.5278 5.82382 17.6386 5.80602 17.7584 5.80602ZM9.03019 6.50305C9.03019 6.26975 9.20796 6.07809 9.49846 6.07809C9.77602 6.07809 9.9634 6.26149 9.9634 6.50305C9.9634 6.74461 9.77602 6.92769 9.49846 6.92769C9.20796 6.92769 9.03019 6.73635 9.03019 6.50305ZM10.2798 6.50305V5.83939H9.94418V6.00054C9.83737 5.88103 9.67623 5.80602 9.45669 5.80602C9.0239 5.80602 8.68499 6.09748 8.68499 6.50305C8.68499 6.9083 9.0239 7.20008 9.45669 7.20008C9.67623 7.20008 9.83737 7.12507 9.94418 7.00556V7.16671H10.2798V6.50305ZM8.38784 7.16671V6.33364C8.38784 6.01993 8.15537 5.80888 7.78098 5.80602C7.58399 5.80316 7.38035 5.85592 7.23842 6.04218C7.13198 5.89501 6.96382 5.80602 6.72802 5.80602C6.56356 5.80602 6.40205 5.84766 6.27602 6.00308V5.83939H5.94043V7.16671H6.27934V6.4309C6.27934 6.20046 6.42792 6.07809 6.65706 6.07809C6.87992 6.07809 6.99302 6.20301 6.99302 6.42804V7.16671H7.33193V6.4309C7.33193 6.20046 7.48716 6.07809 7.70965 6.07809C7.93916 6.07809 8.04893 6.20301 8.04893 6.42804V7.16671H8.38784Z" fill="white"/>
</g>
<defs>
<clipPath id="clip0">
<path d="M0.461914 0H24.0816V13.0002H0.461914V0Z" fill="white"/>
</clipPath>
</defs>
</svg>
