<svg width="25" height="13" viewBox="0 0 25 13" fill="none" xmlns="http://www.w3.org/2000/svg">
<g clip-path="url(#clip0)">
<rect x="0.544922" width="20.3129" height="13.0002" rx="1.21877" fill="#0F3560"/>
<path d="M14.4153 9.69456H10.2822V3.30664H14.4153V9.69456Z" fill="#FF5F00"/>
<path d="M10.5475 6.49992C10.5475 5.2041 11.253 4.04982 12.3516 3.30596C11.5482 2.76201 10.5343 2.43735 9.43235 2.43735C6.82364 2.43735 4.70898 4.25619 4.70898 6.49992C4.70898 8.74365 6.82364 10.5625 9.43235 10.5625C10.5343 10.5625 11.5482 10.2378 12.3516 9.69389C11.253 8.95002 10.5475 7.79574 10.5475 6.49992Z" fill="#EB001B"/>
<path d="M19.9906 6.49992C19.9906 8.74365 17.8759 10.5625 15.2672 10.5625C14.1653 10.5625 13.1514 10.2378 12.3477 9.69389C13.4466 8.95002 14.1521 7.79574 14.1521 6.49992C14.1521 5.2041 13.4466 4.04982 12.3477 3.30596C13.1514 2.76201 14.1653 2.43735 15.2672 2.43735C17.8759 2.43735 19.9906 4.25619 19.9906 6.49992Z" fill="#F79E1B"/>
<path d="M8.26352 6.52646C8.26352 6.34901 8.39874 6.20323 8.6197 6.20323C8.83082 6.20323 8.97335 6.34272 8.97335 6.52646C8.97335 6.7102 8.83082 6.84969 8.6197 6.84969C8.39874 6.84969 8.26352 6.70391 8.26352 6.52646ZM9.21399 6.52646V6.02166H8.95873V6.14424C8.87777 6.05333 8.75492 5.99628 8.58793 5.99628C8.25874 5.99628 8.00068 6.21822 8.00068 6.52646C8.00068 6.83495 8.25874 7.05664 8.58793 7.05664C8.75492 7.05664 8.87777 6.99959 8.95873 6.90868V7.03126H9.21399V6.52646ZM17.8398 6.52646C17.8398 6.34901 17.9751 6.20323 18.196 6.20323C18.4074 6.20323 18.5497 6.34272 18.5497 6.52646C18.5497 6.7102 18.4074 6.84969 18.196 6.84969C17.9751 6.84969 17.8398 6.70391 17.8398 6.52646ZM18.7906 6.52646V5.61623H18.535V6.14424C18.4541 6.05333 18.3312 5.99628 18.1643 5.99628C17.8351 5.99628 17.577 6.21822 17.577 6.52646C17.577 6.83495 17.8351 7.05664 18.1643 7.05664C18.3312 7.05664 18.4541 6.99959 18.535 6.90868V7.03126H18.7906V6.52646ZM12.3825 6.19283C12.5469 6.19283 12.6526 6.28156 12.6796 6.43773H12.0704C12.0977 6.29195 12.2006 6.19283 12.3825 6.19283ZM12.3875 5.99628C12.0434 5.99628 11.8028 6.21169 11.8028 6.52646C11.8028 6.84752 12.0533 7.05664 12.4047 7.05664C12.5815 7.05664 12.7434 7.01868 12.886 6.91521L12.7609 6.75251C12.6625 6.81996 12.5371 6.85816 12.4193 6.85816C12.2549 6.85816 12.105 6.79264 12.0682 6.61083H12.9399C12.9425 6.58352 12.945 6.55595 12.945 6.52646C12.9425 6.21169 12.7164 5.99628 12.3875 5.99628ZM15.4697 6.52646C15.4697 6.34901 15.6049 6.20323 15.8259 6.20323C16.037 6.20323 16.1796 6.34272 16.1796 6.52646C16.1796 6.7102 16.037 6.84969 15.8259 6.84969C15.6049 6.84969 15.4697 6.70391 15.4697 6.52646ZM16.4202 6.52646V6.02166H16.1649V6.14424C16.0837 6.05333 15.9611 5.99628 15.7941 5.99628C15.4649 5.99628 15.2069 6.21822 15.2069 6.52646C15.2069 6.83495 15.4649 7.05664 15.7941 7.05664C15.9611 7.05664 16.0837 6.99959 16.1649 6.90868V7.03126H16.4202V6.52646ZM14.0281 6.52646C14.0281 6.83277 14.2761 7.05664 14.6545 7.05664C14.8313 7.05664 14.9491 7.02279 15.0767 6.93624L14.9542 6.75879C14.8583 6.81802 14.7577 6.84969 14.6469 6.84969C14.4431 6.84752 14.2932 6.72084 14.2932 6.52646C14.2932 6.33208 14.4431 6.2054 14.6469 6.20323C14.7577 6.20323 14.8583 6.2349 14.9542 6.29413L15.0767 6.11668C14.9491 6.03013 14.8313 5.99628 14.6545 5.99628C14.2761 5.99628 14.0281 6.22015 14.0281 6.52646ZM17.3192 5.99628C17.1719 5.99628 17.076 6.05551 17.0097 6.14424V6.02166H16.7567V7.03126H17.0122V6.46529C17.0122 6.29824 17.0957 6.2054 17.2627 6.2054C17.3144 6.2054 17.3684 6.21169 17.4224 6.23079L17.5011 6.02384C17.4446 6.00474 17.3709 5.99628 17.3192 5.99628ZM10.4765 6.10193C10.3536 6.0323 10.1844 5.99628 9.99775 5.99628C9.70032 5.99628 9.50888 6.11885 9.50888 6.31951C9.50888 6.48415 9.65141 6.58569 9.91397 6.61736L10.0346 6.63211C10.1746 6.64903 10.2406 6.6807 10.2406 6.73776C10.2406 6.81585 10.1473 6.86033 9.97301 6.86033C9.79618 6.86033 9.66855 6.81174 9.58253 6.75468L9.46221 6.92561C9.60221 7.01433 9.77903 7.05664 9.97048 7.05664C10.3095 7.05664 10.506 6.91932 10.506 6.72712C10.506 6.54967 10.3514 6.45683 10.0959 6.42516L9.97554 6.41017C9.86506 6.3976 9.7765 6.37874 9.7765 6.31105C9.7765 6.23707 9.86 6.19283 9.99999 6.19283C10.1498 6.19283 10.2949 6.24142 10.366 6.27938L10.4765 6.10193ZM13.7701 5.99628C13.6228 5.99628 13.5269 6.05551 13.4609 6.14424V6.02166H13.2078V7.03126H13.4631V6.46529C13.4631 6.29824 13.5466 6.2054 13.7136 6.2054C13.7653 6.2054 13.8193 6.21169 13.8733 6.23079L13.952 6.02384C13.8955 6.00474 13.8218 5.99628 13.7701 5.99628ZM11.5917 6.02166H11.1742V5.71535H10.9162V6.02166H10.6781V6.22233H10.9162V6.68288C10.9162 6.91714 11.0219 7.05664 11.3238 7.05664C11.4345 7.05664 11.5622 7.02715 11.6431 6.97855L11.5695 6.79046C11.4933 6.82842 11.4098 6.84752 11.3435 6.84752C11.2158 6.84752 11.1742 6.77982 11.1742 6.67853V6.22233H11.5917V6.02166ZM7.77494 7.03126V6.3976C7.77494 6.15898 7.59811 5.99846 7.31306 5.99628C7.16322 5.9941 7.00861 6.03424 6.90038 6.17591C6.81941 6.06397 6.69179 5.99628 6.51243 5.99628C6.38705 5.99628 6.26448 6.02795 6.16862 6.14617V6.02166H5.91309V7.03126H6.17087V6.47158C6.17087 6.2963 6.28388 6.20323 6.45846 6.20323C6.62797 6.20323 6.71371 6.29824 6.71371 6.4694V7.03126H6.97178V6.47158C6.97178 6.2963 7.08957 6.20323 7.25908 6.20323C7.43338 6.20323 7.51687 6.29824 7.51687 6.4694V7.03126H7.77494Z" fill="white"/>
</g>
<defs>
<clipPath id="clip0">
<path d="M0.544922 0H24.1647V13.0002H0.544922V0Z" fill="white"/>
</clipPath>
</defs>
</svg>
