<svg width="24" height="13" viewBox="0 0 24 13" fill="none" xmlns="http://www.w3.org/2000/svg">
<g clip-path="url(#clip0)">
<rect width="20.3129" height="13.0002" rx="1.21877" fill="#FF8C00"/>
<path d="M11.6211 7.16616H11.9174V7.73726H12.1315L12.5156 7.16616H12.8395L12.3785 7.83642V7.84112L12.867 8.57255H12.5322L12.1369 7.95892H11.923V8.57255H11.6266V7.16602H11.6211V7.16616ZM13.5311 7.53907C13.8876 7.53907 14.1786 7.76088 14.1786 8.06762C14.1786 8.37921 13.8932 8.59632 13.5365 8.59632C13.1797 8.59632 12.8943 8.37921 12.8943 8.06762C12.8888 7.75618 13.1742 7.53907 13.5311 7.53907ZM14.409 7.56254H14.689V8.35559H15.0567V7.56269H15.3365V8.35559H15.7043V7.56269H15.9842V8.57255H14.42V7.56254H14.409ZM16.813 7.53907C17.1477 7.53907 17.3343 7.75149 17.3343 8.01584C17.3334 8.04902 17.3298 8.08211 17.3234 8.11486H16.5166C16.5331 8.28943 16.6923 8.3839 16.868 8.3839C16.9886 8.3839 17.1093 8.33666 17.2026 8.27534L17.3179 8.45476C17.1972 8.54424 17.016 8.60101 16.846 8.60101C16.4562 8.60101 16.2148 8.36028 16.2148 8.07232C16.2148 7.75618 16.4616 7.53907 16.813 7.53907ZM17.4715 8.36028C17.6142 8.34136 17.7185 8.23764 17.7185 7.87882V7.56269H18.5748V8.57255H18.2838V7.76542H17.9984V7.87867C17.9984 8.31759 17.8612 8.57255 17.4715 8.58194V8.36014V8.36028ZM19.4089 7.53907C19.7436 7.53907 19.9302 7.75149 19.9302 8.01584C19.9293 8.04902 19.9256 8.08211 19.9193 8.11486H19.1124C19.129 8.28943 19.2881 8.3839 19.4638 8.3839C19.5844 8.3839 19.7052 8.33666 19.7985 8.27534L19.9138 8.45476C19.7931 8.54424 19.6119 8.60101 19.4418 8.60101C19.0522 8.60101 18.8107 8.36028 18.8107 8.07232C18.8107 7.75618 19.0577 7.53907 19.4089 7.53907ZM20.1717 7.56254H20.4626V7.94968H20.6054L20.8907 7.56269H21.2145L20.8413 8.044V8.04884L21.2583 8.57255H20.9182L20.6108 8.16209H20.4573V8.57255H20.1661V7.56254H20.1716H20.1717ZM13.5311 8.37921C13.7231 8.37921 13.8823 8.25173 13.8823 8.06293C13.8823 7.87882 13.7231 7.74665 13.5309 7.74665C13.339 7.74665 13.1853 7.87427 13.1853 8.06293C13.1853 8.25173 13.3388 8.37921 13.5311 8.37921ZM17.038 7.94029C17.038 7.80811 16.9336 7.72787 16.8019 7.72787C16.6539 7.72787 16.544 7.81281 16.5166 7.94029H17.038ZM19.6339 7.94029C19.6339 7.80811 19.5297 7.72787 19.398 7.72787C19.2496 7.72787 19.1399 7.81281 19.1124 7.94029H19.6339Z" fill="#2D3540"/>
<path d="M15.7206 4.10337V6.48692C15.7208 6.49564 15.719 6.50432 15.7152 6.51242C15.7114 6.52052 15.7058 6.52787 15.6986 6.53405C15.6914 6.54022 15.6829 6.54507 15.6735 6.54832C15.664 6.55156 15.654 6.55313 15.6438 6.55293H15.0785C15.0684 6.55313 15.0583 6.55156 15.0489 6.54832C15.0394 6.54507 15.0309 6.54022 15.0237 6.53405C15.0165 6.52787 15.0109 6.52052 15.0071 6.51242C15.0033 6.50432 15.0015 6.49564 15.0017 6.48692V4.10337C15.0015 4.09465 15.0033 4.08597 15.0071 4.07787C15.0109 4.06977 15.0165 4.06242 15.0237 4.05625C15.0309 4.05008 15.0394 4.04522 15.0489 4.04197C15.0583 4.03873 15.0684 4.03716 15.0785 4.03736H15.6438C15.654 4.03716 15.664 4.03873 15.6735 4.04197C15.6829 4.04522 15.6914 4.05008 15.6986 4.05625C15.7058 4.06242 15.7114 4.06977 15.7152 4.07787C15.719 4.08597 15.7208 4.09465 15.7206 4.10337ZM20.1331 4.03736C20.1551 4.03736 20.1826 4.04675 20.2099 4.06567C20.2264 4.07975 20.2264 4.10337 20.221 4.1223L19.2879 6.51054C19.2822 6.5229 19.2724 6.53353 19.2598 6.54111C19.2471 6.54868 19.232 6.55285 19.2166 6.55308H18.7117C18.6788 6.55308 18.6513 6.53885 18.6404 6.51054L18.0967 5.11823L17.5535 6.51039C17.5478 6.52275 17.538 6.53339 17.5253 6.54096C17.5126 6.54853 17.4976 6.5527 17.4822 6.55293H16.9772C16.9443 6.55293 16.9168 6.53885 16.9059 6.51039L15.9729 4.12215C15.9674 4.10337 15.9674 4.08445 15.9838 4.06567C15.9949 4.04675 16.0223 4.03736 16.0442 4.03736H16.6753C16.7082 4.03736 16.7357 4.05614 16.7468 4.08445L17.2461 5.49568L17.795 4.08445C17.8007 4.07209 17.8105 4.06145 17.8231 4.05388C17.8358 4.04631 17.8509 4.04214 17.8663 4.04191H18.3108C18.3437 4.04191 18.3712 4.05614 18.3821 4.08445L18.9311 5.49568L19.4305 4.08445C19.435 4.07108 19.4443 4.0593 19.4572 4.05082C19.47 4.04235 19.4856 4.03763 19.5018 4.03736H20.133H20.1331ZM21.088 4.03736C21.1264 4.03736 21.1593 4.06567 21.1648 4.10337V6.48692C21.165 6.49564 21.1632 6.50432 21.1594 6.51242C21.1557 6.52052 21.15 6.52787 21.1428 6.53405C21.1357 6.54022 21.1271 6.54507 21.1177 6.54832C21.1083 6.55156 21.0982 6.55313 21.088 6.55293H20.5227C20.5126 6.55313 20.5025 6.55156 20.4931 6.54832C20.4837 6.54507 20.4751 6.54022 20.4679 6.53405C20.4608 6.52787 20.4551 6.52052 20.4513 6.51242C20.4476 6.50432 20.4457 6.49564 20.446 6.48692V4.10337C20.4457 4.09465 20.4476 4.08597 20.4513 4.07787C20.4551 4.06977 20.4608 4.06242 20.4679 4.05625C20.4751 4.05008 20.4837 4.04522 20.4931 4.04197C20.5025 4.03873 20.5126 4.03716 20.5227 4.03736H21.088ZM14.6724 6.46814C14.7053 6.50115 14.6778 6.54824 14.6284 6.54824H13.9368C13.9232 6.54856 13.9097 6.54616 13.8973 6.54125C13.885 6.53634 13.8741 6.52905 13.8655 6.51993L13.7504 6.39729C13.5088 6.52932 13.2233 6.60971 12.9215 6.60971C12.0765 6.60971 11.3904 6.01969 11.3904 5.2928C11.3904 4.56591 12.0765 3.97589 12.9215 3.97589C13.7668 3.97589 14.4528 4.56591 14.4528 5.2928C14.4528 5.55245 14.365 5.79788 14.2113 6.00546L14.6724 6.468V6.46814ZM8.89312 7.62441C9.03589 7.67165 9.09082 7.85561 9.10174 7.93585C9.12374 8.08226 9.07445 8.13888 9.01952 8.13888C8.96459 8.13888 8.88766 8.08226 8.80544 7.96901C8.72305 7.85561 8.69013 7.72828 8.73414 7.66212C8.76143 7.61957 8.82182 7.6008 8.89329 7.62441H8.89312ZM8.05898 8.15781C8.14683 8.15781 8.2456 8.19081 8.33345 8.25683C8.50352 8.37962 8.55298 8.52118 8.46513 8.62504C8.41567 8.67697 8.33345 8.70998 8.24014 8.70998C8.14683 8.70998 8.04807 8.68167 7.98222 8.62973C7.82853 8.51648 7.78469 8.32754 7.88329 8.22382C7.92184 8.18128 7.98222 8.15781 8.05898 8.15781ZM6.13826 9.5218C4.05258 9.5218 2.3623 8.06803 2.3623 6.2745C2.3623 4.48097 4.05275 3.02734 6.13809 3.02734C8.22359 3.02734 9.91404 4.48112 9.91404 6.2745C9.91404 6.8833 9.71651 7.45454 9.38183 7.9407C9.37074 7.95478 9.34328 7.95008 9.33782 7.93116C9.20613 7.13356 8.64083 6.6945 7.81761 6.56247C7.74614 6.55293 7.73522 6.51523 7.82853 6.50584C8.08099 6.48692 8.43767 6.49161 8.62429 6.51993C8.6352 6.43968 8.64083 6.35474 8.64083 6.26981C8.64083 5.08507 7.52115 4.12215 6.14355 4.12215C4.76611 4.12215 3.64643 5.08507 3.64643 6.26981C3.64643 7.45454 4.76611 8.41746 6.14372 8.41746H6.25886C6.21974 8.22584 6.20317 8.03131 6.20939 7.83683C6.21502 7.70466 6.24794 7.68573 6.31378 7.7896C6.65955 8.30407 7.15355 8.7666 8.11937 8.95071C8.90967 9.10181 9.69996 9.27638 10.5506 10.2062C10.6274 10.2864 10.5123 10.3713 10.4244 10.3053C9.55736 9.64444 8.76706 9.42733 8.04807 9.42733C7.24123 9.43217 6.69247 9.5218 6.13809 9.5218H6.13826ZM13.3002 5.93944L12.9983 5.62316C12.9655 5.59016 12.993 5.53822 13.0423 5.53822H13.6789C13.7118 5.46267 13.7284 5.37774 13.7284 5.2928C13.7284 4.90112 13.3881 4.56122 12.9215 4.56122C12.4552 4.56122 12.1147 4.90112 12.1147 5.2928C12.1147 5.68448 12.4552 6.01969 12.9215 6.01969C13.0532 6.02438 13.1851 5.99137 13.3002 5.93944Z" fill="white"/>
</g>
<defs>
<clipPath id="clip0">
<path d="M0 0H23.6198V13.0002H0V0Z" fill="white"/>
</clipPath>
</defs>
</svg>
