<svg width="24" height="13" viewBox="0 0 24 13" fill="none" xmlns="http://www.w3.org/2000/svg">
<g clip-path="url(#clip0)">
<rect x="0.271484" width="20.3129" height="13.0002" rx="1.21877" fill="#299D37"/>
<path fill-rule="evenodd" clip-rule="evenodd" d="M18.295 9.36779H18.7267C18.6493 9.40499 18.5457 9.47557 18.4156 9.57937L17.984 9.95861L18.2207 10.25C18.4683 10.5534 18.6849 10.785 18.8706 10.9446H18.2532C18.1759 10.7902 18.0753 10.6333 17.9515 10.4736L17.673 10.1143L17.9145 9.85082C18.131 9.60867 18.2579 9.44763 18.295 9.36779ZM17.6405 9.54344V10.765L17.6591 10.8568C17.6714 10.8728 17.6994 10.8861 17.7425 10.8967V10.9446H17.1437V10.8967L17.2273 10.8568C17.2396 10.8409 17.2458 10.8103 17.2458 10.765V9.54344L17.2273 9.45561C17.2149 9.43701 17.187 9.42503 17.1437 9.41968V9.36779H17.7425V9.41968C17.6993 9.42495 17.6713 9.43701 17.6591 9.45561L17.6405 9.54344ZM16.7492 9.54344V10.765L16.7678 10.8568L16.8514 10.8967V10.9446H16.2479V10.8967C16.2912 10.8861 16.3222 10.8728 16.3408 10.8568L16.3546 10.765V10.1303H15.649V10.765L15.6676 10.8568C15.68 10.8728 15.7078 10.8861 15.751 10.8967V10.9446H15.143V10.8967C15.1925 10.8861 15.2233 10.8728 15.2358 10.8568L15.2544 10.765V9.54344L15.2358 9.45561C15.2233 9.43701 15.1925 9.42503 15.143 9.41968V9.36779H15.751V9.41968C15.7077 9.42495 15.6799 9.43701 15.6676 9.45561L15.649 9.54344V10.0265H16.3546V9.54344L16.3408 9.45561C16.3222 9.43701 16.2912 9.42503 16.2479 9.41968V9.36779H16.8514V9.41968C16.808 9.42495 16.7802 9.43701 16.7678 9.45561L16.7492 9.54344ZM13.8295 9.41968V9.36779H14.3586C14.3647 9.43964 14.3865 9.51685 14.4235 9.59933L14.8135 10.5414C14.8785 10.7065 14.9419 10.8409 15.0038 10.9446H14.5396L14.3401 10.3778H13.7505L13.6251 10.753L13.588 10.9446H13.2538L13.8479 9.763C13.9067 9.63797 13.936 9.55278 13.936 9.50751C13.9362 9.45697 13.9006 9.42767 13.8295 9.41968ZM14.0476 9.63126L13.797 10.266H14.2983L14.0476 9.63126ZM13.11 9.7111H13.0078L12.9845 9.64324C12.9598 9.56603 12.9226 9.51549 12.8731 9.49154L12.6178 9.4636H12.3719C12.3161 9.4636 12.2791 9.47158 12.2605 9.48755C12.2451 9.50088 12.2373 9.52476 12.2373 9.55941V9.93466H12.3394C12.6365 9.93466 12.8423 9.95997 12.9568 10.0105C13.1208 10.0797 13.2028 10.2155 13.2028 10.4177C13.2028 10.6147 13.1378 10.7557 13.0078 10.8409C12.8933 10.9101 12.7154 10.9446 12.4739 10.9446H11.7406V10.8967L11.8287 10.8568L11.8426 10.765V9.54344L11.8287 9.45561C11.8164 9.43701 11.787 9.42503 11.7406 9.41968V9.36779H13.11V9.7111ZM12.2373 10.0345V10.7091C12.2373 10.7624 12.2482 10.7969 12.2698 10.8129C12.2947 10.8342 12.3379 10.8448 12.3998 10.8448H12.4555C12.5732 10.8448 12.6597 10.8102 12.7155 10.741C12.765 10.6772 12.7898 10.5747 12.7898 10.4337C12.7898 10.2953 12.7634 10.1969 12.7108 10.1383C12.6551 10.069 12.5514 10.0345 12.3998 10.0345H12.2373ZM11.5781 9.81889C11.5781 10.0025 11.5131 10.1343 11.3831 10.2141C11.2717 10.2833 11.0984 10.3179 10.8632 10.3179H10.6775V10.765L10.6961 10.8568C10.7054 10.8728 10.7347 10.8861 10.7842 10.8967V10.9446H10.1807V10.8967L10.2643 10.8568L10.2829 10.765V9.54344L10.2643 9.45561C10.2519 9.43701 10.224 9.42503 10.1807 9.41968V9.36779H10.942C11.1493 9.36779 11.3009 9.39437 11.3969 9.44763C11.5178 9.51685 11.5781 9.6406 11.5781 9.81889ZM10.7055 9.47957C10.6869 9.49018 10.6776 9.51414 10.6776 9.55142V10.2181H10.8633C10.9777 10.2181 11.0582 10.1808 11.1047 10.1063C11.145 10.0398 11.165 9.93865 11.165 9.80292C11.165 9.57673 11.0551 9.4636 10.8354 9.4636H10.789L10.7055 9.47957ZM9.9024 9.7111H9.80492L9.78171 9.64324C9.7508 9.56603 9.71208 9.51549 9.66566 9.49154L9.415 9.4636H9.21075L9.13648 9.47957L9.11792 9.53945V10.0265H9.3593C9.52641 10.0265 9.63623 10.0105 9.68887 9.97857V10.1782C9.63633 10.1462 9.52641 10.1303 9.3593 10.1303H9.11792V10.7211C9.11792 10.769 9.13648 10.8023 9.17362 10.8209L9.40571 10.8448H9.45678L9.70744 10.8129C9.7508 10.789 9.78487 10.7304 9.80956 10.6373L9.82813 10.5774H9.94418V10.9446H8.62123V10.8967C8.66765 10.8861 8.69708 10.8728 8.70943 10.8568L8.72799 10.765V9.54344L8.70943 9.45561C8.69708 9.43701 8.66765 9.42503 8.62123 9.41968V9.36779H9.9024V9.7111ZM8.3195 9.7111H8.22202L8.19881 9.64324C8.17096 9.56603 8.13225 9.51549 8.08277 9.49154L7.83674 9.4636H7.58144C7.5288 9.4636 7.49166 9.47158 7.47003 9.48755C7.46075 9.50088 7.45611 9.52476 7.45611 9.55941V9.93466H7.55823C7.85225 9.93466 8.05798 9.95997 8.1756 10.0105C8.33649 10.0797 8.41698 10.2155 8.41698 10.4177C8.41698 10.6147 8.352 10.7557 8.22202 10.8409C8.11062 10.9101 7.93265 10.9446 7.6882 10.9446H6.95014V10.8967C6.99971 10.8861 7.03063 10.8728 7.04298 10.8568L7.06154 10.765V9.54344L7.04298 9.45561C7.03063 9.43701 6.99971 9.42503 6.95014 9.41968V9.36779H8.3195V9.7111ZM6.47202 9.49553C6.41631 9.46096 6.3297 9.44364 6.21207 9.44364C6.02639 9.44364 5.89484 9.50216 5.81751 9.61929C5.75252 9.72044 5.72003 9.8854 5.72003 10.1143C5.72003 10.3432 5.75558 10.5121 5.82679 10.6213C5.91341 10.757 6.06195 10.8249 6.27242 10.8249C6.42718 10.8249 6.58036 10.7929 6.73197 10.7291L6.78767 10.8289C6.61128 10.922 6.40397 10.9686 6.16565 10.9686C5.58383 10.9686 5.29297 10.7038 5.29297 10.1742C5.29297 9.61801 5.59469 9.33984 6.19814 9.33984C6.43024 9.33984 6.60821 9.3638 6.73197 9.4117V9.73905H6.61592L6.58342 9.64324C6.55864 9.57673 6.5215 9.52747 6.47202 9.49553ZM7.45611 10.0345V10.7091C7.45611 10.7624 7.46539 10.7969 7.48396 10.8129C7.50875 10.8342 7.55359 10.8448 7.61857 10.8448H7.66964C7.89245 10.8448 8.00385 10.7078 8.00385 10.4337C8.00385 10.2953 7.97758 10.1969 7.92494 10.1383C7.86617 10.069 7.7609 10.0345 7.60929 10.0345H7.45611Z" fill="white"/>
<path fill-rule="evenodd" clip-rule="evenodd" d="M14.2299 2.41174L14.5335 2.65048L10.6991 4.54548L8.84263 3.62036L9.01613 3.32194L10.6991 4.15007L14.2299 2.41174ZM13.4578 2.03125L13.8656 2.2103L10.6991 3.77703L9.22434 3.05335L9.47592 2.79223L10.6991 3.39654L13.4578 2.03125ZM14.8025 2.89668L15.028 3.1578L10.6991 5.299L8.6084 4.26944L8.70383 3.94117L10.6991 4.92597L14.8025 2.89668Z" fill="white"/>
<path fill-rule="evenodd" clip-rule="evenodd" d="M15.4263 3.8592C15.5535 4.16762 15.6171 4.49082 15.6171 4.82908C15.6171 5.16735 15.5535 5.49561 15.4263 5.81388L15.3395 6.01547C15.1603 6.3785 14.9087 6.70184 14.5848 6.98535C14.2551 7.26378 13.8793 7.47775 13.457 7.62696C13.0118 7.79109 12.552 7.87316 12.0777 7.87316C11.5976 7.87316 11.1378 7.79095 10.6983 7.62696C10.2876 7.47775 9.9146 7.26378 9.57922 6.98535C9.24956 6.70184 8.99798 6.3785 8.82448 6.01547C8.63935 5.63229 8.54688 5.23688 8.54688 4.82908V4.62764L10.6983 5.67959L15.2354 3.44141L15.4263 3.8592Z" fill="white"/>
</g>
<defs>
<clipPath id="clip0">
<path d="M0.271484 0H23.8912V13.0002H0.271484V0Z" fill="white"/>
</clipPath>
</defs>
</svg>
