<svg width="25" height="13" viewBox="0 0 25 13" fill="none" xmlns="http://www.w3.org/2000/svg">
<g clip-path="url(#clip0)">
<rect x="0.813477" width="20.3129" height="13.0002" rx="1.21877" fill="#00579F"/>
<path d="M9.94197 8.74692H8.69141L9.4736 4.26367H10.7241L9.94197 8.74692Z" fill="white"/>
<path d="M14.475 4.37446C14.2283 4.28375 13.8371 4.18359 13.3533 4.18359C12.1184 4.18359 11.2487 4.79405 11.2434 5.66681C11.2331 6.31073 11.866 6.66839 12.3394 6.88309C12.8232 7.10249 12.9877 7.24569 12.9877 7.44125C12.9828 7.74159 12.5967 7.88004 12.2367 7.88004C11.7374 7.88004 11.4699 7.80866 11.0633 7.64156L10.8986 7.56993L10.7236 8.57632C11.0169 8.70019 11.5573 8.81011 12.1184 8.81492C13.4305 8.81492 14.2848 8.21392 14.2949 7.28385C14.2999 6.77349 13.9657 6.38243 13.2452 6.06288C12.8078 5.85774 12.54 5.71943 12.54 5.50954C12.5451 5.31873 12.7665 5.1233 13.2603 5.1233C13.6668 5.11373 13.9655 5.20431 14.1918 5.29496L14.3049 5.34257L14.475 4.37446Z" fill="white"/>
<path d="M16.137 7.15867C16.24 6.90111 16.6363 5.90429 16.6363 5.90429C16.6311 5.91386 16.739 5.64198 16.8008 5.47507L16.8882 5.86137C16.8882 5.86137 17.125 6.93452 17.1764 7.15867C16.981 7.15867 16.384 7.15867 16.137 7.15867ZM17.6806 4.26367H16.7133C16.415 4.26367 16.1884 4.34469 16.0597 4.63565L14.2021 8.74686H15.5143C15.5143 8.74686 15.7304 8.19352 15.7768 8.07435C15.9207 8.07435 17.1972 8.07435 17.3824 8.07435C17.4183 8.23175 17.5316 8.74686 17.5316 8.74686H18.6895L17.6806 4.26367Z" fill="white"/>
<path d="M7.64711 4.26367L6.42239 7.32082L6.28856 6.70079C6.06214 5.98537 5.35202 5.20807 4.55957 4.82157L5.68137 8.74217H7.00381L8.96948 4.26367H7.64711Z" fill="white"/>
<path d="M5.28458 4.26367H3.27254L3.25195 4.35426C4.82147 4.7263 5.86093 5.62309 6.288 6.70098L5.85061 4.64053C5.7786 4.35419 5.5573 4.27312 5.28458 4.26367Z" fill="#FAA61A"/>
</g>
<defs>
<clipPath id="clip0">
<path d="M0.813477 0H24.4331V13.0002H0.813477V0Z" fill="white"/>
</clipPath>
</defs>
</svg>
