<svg width="25" height="13" viewBox="0 0 25 13" fill="none" xmlns="http://www.w3.org/2000/svg">
<g clip-path="url(#clip0)">
<rect x="0.919922" width="20.3129" height="13.0002" rx="1.21877" fill="#F7C700"/>
<path d="M4.19253 6.58925L3.66619 7.60595H3.28223L3.86035 6.51885C3.72517 6.45951 3.61582 6.37231 3.53255 6.25727C3.44902 6.14223 3.40739 5.98586 3.40739 5.78793C3.40739 5.64946 3.43103 5.52768 3.47858 5.42247C3.52599 5.31749 3.59076 5.23018 3.67261 5.16089C3.75447 5.0916 3.8502 5.03977 3.95981 5.00507C4.07028 4.97027 4.18707 4.95268 4.30471 4.95313H4.80073V7.60595H4.46868V6.58925H4.1924H4.19253ZM4.46868 5.19073H4.29173C4.22556 5.19073 4.16079 5.20123 4.0977 5.22234C4.0346 5.24345 3.97819 5.27693 3.92936 5.3229C3.88053 5.36877 3.84095 5.42955 3.81075 5.50525C3.78043 5.58095 3.76552 5.67455 3.76552 5.78628C3.76552 5.89292 3.77901 5.98232 3.80638 6.05426C3.83375 6.12621 3.87115 6.18467 3.91857 6.2292C3.96611 6.27385 4.02214 6.30546 4.0869 6.32413C4.15298 6.34288 4.22215 6.35229 4.29173 6.35198H4.46868V5.19062V5.19073ZM6.40134 5.73599V7.60584H6.06904V6.76739H5.56865V7.60595H5.23224V5.7361H5.56865V6.53001H6.06904V5.73599H6.40134V5.73599ZM8.13136 7.97318H7.82938V7.60595H6.89749V7.97318H6.59551V7.36846H6.72915C6.77811 7.26955 6.81692 7.16015 6.8457 7.04013C6.87436 6.92023 6.89671 6.79657 6.91252 6.66904C6.92833 6.54173 6.93835 6.41188 6.94285 6.2796C6.94709 6.1472 6.94927 6.01923 6.94927 5.89546V5.73599H7.95878V7.36846H8.13136V7.97318V7.97318ZM7.6266 5.97337H7.25138V6.00674C7.25138 6.10543 7.24907 6.2134 7.2447 6.33054C7.24025 6.44981 7.2309 6.5689 7.21668 6.6876C7.20239 6.8073 7.18225 6.92643 7.15629 7.04466C7.13254 7.15534 7.09639 7.26378 7.04835 7.36846H7.6266V5.97337ZM9.59383 7.47975C9.52245 7.52786 9.4423 7.56546 9.35662 7.59103C9.26744 7.61822 9.16811 7.63192 9.05888 7.63192C8.83452 7.63192 8.6577 7.5571 8.52817 7.40747C8.39877 7.25784 8.33413 7.03825 8.33413 6.74883C8.33413 6.59809 8.34621 6.45951 8.37075 6.3333C8.3953 6.2071 8.43398 6.0977 8.48731 6.00498C8.54038 5.91215 8.60874 5.83987 8.69227 5.78793C8.77553 5.73599 8.87474 5.71002 8.98975 5.71002C9.07893 5.71002 9.16091 5.72549 9.23583 5.75644C9.31049 5.78738 9.37371 5.83744 9.42562 5.90673C9.47728 5.97591 9.5175 6.06554 9.54641 6.17561C9.57507 6.28567 9.58946 6.41983 9.58946 6.5782V6.73766H8.68353C8.68353 6.95051 8.71732 7.11119 8.78504 7.22004C8.85251 7.3289 8.95389 7.38327 9.08908 7.38327C9.18391 7.38327 9.26808 7.36912 9.34145 7.34061C9.4147 7.31221 9.47304 7.28436 9.51622 7.25718L9.59383 7.47975V7.47975ZM8.98987 5.94751C8.8863 5.94751 8.81306 5.99757 8.76988 6.09781C8.72658 6.19793 8.6992 6.33209 8.68777 6.50029H9.24444C9.24444 6.42116 9.24007 6.34756 9.23146 6.2796C9.22472 6.21981 9.21099 6.16075 9.19047 6.10333C9.1717 6.05382 9.14588 6.01548 9.11285 5.98829C9.09649 5.97482 9.07718 5.96428 9.05605 5.95726C9.03492 5.95024 9.01239 5.94689 8.98975 5.9474L8.98987 5.94751ZM10.271 6.67467V7.60595H9.93475V5.7361H10.2713V6.60041L10.7933 5.73599H11.134L10.5949 6.61533L11.2118 7.60595H10.8452L10.2713 6.67467H10.271ZM12.0012 7.63181C11.7681 7.63181 11.5855 7.55213 11.4532 7.39255C11.3209 7.23297 11.2547 6.9925 11.2547 6.67092C11.2547 6.52504 11.2714 6.39276 11.3044 6.27396C11.3373 6.15527 11.3863 6.05449 11.4509 5.9716C11.5122 5.89147 11.5952 5.82527 11.6926 5.77865C11.789 5.7329 11.9004 5.71002 12.027 5.71002C12.1247 5.71002 12.204 5.71931 12.2642 5.73787C12.3247 5.75644 12.3792 5.77931 12.4283 5.80639L12.3808 6.08101C12.3319 6.0438 12.2774 6.01236 12.2189 5.98752C12.158 5.96104 12.0908 5.94733 12.0226 5.94751C11.9018 5.94751 11.8026 6.00597 11.725 6.12278C11.6473 6.2397 11.6085 6.4174 11.6085 6.656C11.6085 6.89227 11.641 7.07439 11.7055 7.20236C11.7703 7.33056 11.8716 7.39443 12.0098 7.39443C12.0931 7.39443 12.1651 7.38227 12.2254 7.35796C12.2858 7.33387 12.3362 7.30635 12.3764 7.27574L12.454 7.49091C12.3958 7.53329 12.3304 7.5677 12.26 7.59291C12.188 7.61888 12.1017 7.63181 12.0012 7.63181V7.63181Z" fill="black"/>
<path d="M14.7403 7.60594H13.4201L13.39 8.04743H13.2217V7.45752H13.3123C13.3871 7.40304 13.4445 7.30646 13.4849 7.16765C13.5252 7.02896 13.5567 6.86419 13.5798 6.67345C13.6028 6.4753 13.6186 6.23196 13.6272 5.9433C13.6358 5.65476 13.643 5.32466 13.6487 4.95312H14.7272V7.45752H14.9387V8.04743H14.7704L14.7403 7.60594V7.60594ZM14.5116 5.10154H13.8429C13.8383 5.4 13.8296 5.6984 13.817 5.99668C13.8055 6.25351 13.7911 6.47862 13.774 6.67212C13.7537 6.87325 13.7257 7.0388 13.6898 7.16909C13.6538 7.29938 13.6071 7.39553 13.5496 7.45752H14.5116V5.10154V5.10154ZM15.3529 6.70063C15.3585 6.95901 15.4003 7.15594 15.4779 7.29143C15.5557 7.42691 15.6735 7.49455 15.8317 7.49455C15.9036 7.49455 15.9669 7.4846 16.0215 7.46438C16.0761 7.44426 16.1222 7.42028 16.1596 7.39254C16.2028 7.36492 16.24 7.33088 16.2718 7.29054L16.3364 7.43155C16.3019 7.47355 16.2602 7.50946 16.2114 7.53908C16.1682 7.56638 16.115 7.59047 16.0518 7.61147C15.9883 7.63246 15.9137 7.64296 15.8274 7.64296C15.5973 7.64296 15.4277 7.55765 15.3183 7.38702C15.2091 7.21628 15.1545 6.97769 15.1545 6.67091C15.1545 6.51763 15.1703 6.38093 15.2019 6.26091C15.2335 6.14101 15.2773 6.03901 15.3335 5.9548C15.3895 5.87081 15.4563 5.80704 15.5339 5.76372C15.6096 5.72103 15.6982 5.69846 15.7886 5.69885C15.8835 5.69885 15.9683 5.71985 16.0431 5.76184C16.1178 5.80406 16.1797 5.86705 16.2286 5.95115C16.2774 6.03525 16.312 6.13979 16.3322 6.26467C16.3522 6.38955 16.3538 6.53498 16.3364 6.70063H15.3529V6.70063ZM15.7886 5.84727C15.6735 5.84727 15.5751 5.90816 15.4931 6.03005C15.4111 6.15184 15.3657 6.32954 15.3571 6.56338H16.1466C16.164 6.31473 16.136 6.13338 16.0626 6.01889C15.9892 5.90451 15.8979 5.84727 15.7886 5.84727ZM17.6653 6.7118H16.923V7.60583H16.7204V5.7361H16.923V6.56349H17.6653V5.73598H17.8679V7.60583H17.6653V6.7118V6.7118ZM18.3466 5.73598H18.5495V6.42977H18.7091C18.9161 6.42977 19.0815 6.47807 19.2051 6.57454C19.3288 6.67091 19.3908 6.81689 19.3908 7.01228C19.3908 7.2102 19.326 7.35862 19.1965 7.45752C19.0671 7.55643 18.9003 7.60594 18.6961 7.60594H18.3466V5.7361V5.73598ZM18.5495 6.56703V7.46869H18.6789C18.8313 7.46869 18.9549 7.43332 19.0499 7.36293C19.145 7.29242 19.1922 7.17683 19.1922 7.01592C19.1922 6.85767 19.1491 6.74329 19.0628 6.67279C18.9766 6.60228 18.8558 6.56703 18.7005 6.56703H18.5495V6.56703ZM19.9387 5.8844V7.60594H19.7403V5.7361H20.6591V5.8844H19.9387ZM21.9834 6.30357C21.9834 6.25417 21.9848 6.20897 21.9878 6.16819C21.9906 6.12741 21.9949 6.08719 22.0006 6.04774H21.9878C21.9733 6.08973 21.9561 6.12985 21.936 6.16819C21.916 6.20654 21.8942 6.24666 21.8712 6.28876L21.1638 7.60594H20.9911V5.7361H21.1811V7.0346C21.1814 7.12263 21.1756 7.21061 21.1638 7.29806H21.1767C21.1911 7.25595 21.2083 7.21451 21.2285 7.17373C21.2485 7.13284 21.2701 7.0914 21.2932 7.04941L22.0006 5.73598H22.1776V7.60583H21.9834V6.30379V6.30357Z" fill="black"/>
</g>
<defs>
<clipPath id="clip0">
<path d="M0.919922 0H24.5396V13.0002H0.919922V0Z" fill="white"/>
</clipPath>
</defs>
</svg>
