<svg width="24" height="13" viewBox="0 0 24 13" fill="none" xmlns="http://www.w3.org/2000/svg">
<g clip-path="url(#clip0)">
<rect x="0.000976562" width="20.3129" height="13.0002" rx="1.21877" fill="black"/>
<rect x="13.7734" y="4.94727" width="3.60722" height="3.25414" fill="#D6AB05"/>
<path d="M19.9631 4.9452V7.02254L16.2414 8.06384L19.1844 6.33937V2.53906C19.1844 2.53906 17.0786 3.98064 16.4216 4.40197C15.6281 4.91209 15.5957 5.12126 15.5957 5.4508V7.97807C15.5957 8.09168 15.6491 8.20153 15.7427 8.28204C15.8363 8.36254 15.9632 8.40844 16.0961 8.40844H20.7863V4.9452H19.9631ZM17.8398 4.87372C18.0121 4.69766 18.2632 4.63446 18.4014 4.73453C18.5397 4.83384 18.5117 5.05806 18.3393 5.23411C18.167 5.41017 17.9159 5.47262 17.7776 5.37331C17.6403 5.27324 17.6674 5.04978 17.8398 4.87372Z" fill="#FFCC00"/>
<path d="M6.58032 6.16204V8.40686H6.18137V7.40027H5.58064V8.40699H5.17676V6.16217H5.58064V7.11529H6.18137V6.16204H6.58032ZM8.65728 8.84786H8.29474V8.40699H7.17596V8.84786H6.81342V8.12188H6.97387C7.03264 8.00314 7.07923 7.87179 7.11379 7.72771C7.14819 7.58376 7.17504 7.4353 7.19401 7.28219C7.21299 7.12935 7.22502 6.97346 7.23042 6.81465C7.23551 6.65571 7.23813 6.50208 7.23813 6.35348V6.16204H8.45009V8.12188H8.65728V8.84786ZM8.0513 6.44702H7.60083V6.48709C7.60083 6.60556 7.59805 6.73518 7.5928 6.87582C7.58746 7.019 7.57624 7.16198 7.55917 7.30448C7.54202 7.44818 7.51783 7.5912 7.48667 7.73315C7.45815 7.86602 7.41475 7.9962 7.35708 8.12188H8.0513V6.44702ZM10.413 8.25548C10.3273 8.31324 10.2311 8.35839 10.1283 8.38908C10.0212 8.42172 9.90194 8.43817 9.77081 8.43817C9.50145 8.43817 9.28917 8.34835 9.13367 8.16871C8.97832 7.98907 8.90072 7.72545 8.90072 7.37798C8.90072 7.19702 8.91522 7.03065 8.94468 6.87913C8.97415 6.72762 9.02059 6.59627 9.08461 6.48496C9.14832 6.37352 9.2304 6.28675 9.33067 6.22439C9.43064 6.16204 9.54974 6.13086 9.68781 6.13086C9.79488 6.13086 9.8933 6.14943 9.98324 6.18658C10.0729 6.22373 10.1488 6.28383 10.2111 6.36702C10.2731 6.45007 10.3214 6.55767 10.3561 6.68981C10.3905 6.82195 10.4078 6.98302 10.4078 7.17314V7.36458H9.32018C9.32018 7.62011 9.36076 7.81302 9.44206 7.9437C9.52305 8.07438 9.64477 8.13966 9.80706 8.13966C9.92091 8.13966 10.022 8.12267 10.1101 8.08844C10.198 8.05435 10.268 8.02091 10.3199 7.98828L10.413 8.25548ZM9.68796 6.41597C9.56362 6.41597 9.47569 6.47607 9.42385 6.59641C9.37186 6.71661 9.339 6.87767 9.32527 7.0796H9.99358C9.99358 6.98461 9.98833 6.89625 9.978 6.81465C9.96991 6.74287 9.95342 6.67198 9.92878 6.60304C9.90626 6.5436 9.87525 6.49757 9.8356 6.46493C9.81596 6.44876 9.79278 6.4361 9.76742 6.42767C9.74205 6.41925 9.71515 6.41536 9.68796 6.41597ZM11.2261 7.28896V8.40699H10.8223V6.16217H11.2264V7.1998L11.853 6.16204H12.2621L11.6148 7.21771L12.3555 8.40699H11.9153L11.2261 7.28896ZM13.3032 8.43804C13.0233 8.43804 12.8041 8.34238 12.6453 8.1508C12.4864 7.95922 12.407 7.67053 12.407 7.28445C12.407 7.10932 12.4271 6.95051 12.4667 6.80789C12.5062 6.6654 12.565 6.5444 12.6426 6.4449C12.7162 6.34869 12.8157 6.26922 12.9328 6.21325C13.0485 6.15832 13.1822 6.13086 13.3342 6.13086C13.4514 6.13086 13.5466 6.142 13.619 6.16429C13.6916 6.18658 13.757 6.21405 13.816 6.24655L13.7589 6.57624C13.7002 6.53157 13.6348 6.49383 13.5645 6.464C13.4915 6.43221 13.4108 6.41576 13.3289 6.41597C13.1839 6.41597 13.0648 6.48616 12.9716 6.62639C12.8783 6.76676 12.8317 6.9801 12.8317 7.26654C12.8317 7.55019 12.8707 7.76884 12.9482 7.92247C13.0259 8.07637 13.1477 8.15306 13.3135 8.15306C13.4135 8.15306 13.5 8.13846 13.5724 8.10927C13.6449 8.08035 13.7053 8.04732 13.7536 8.01057L13.8468 8.26888C13.777 8.31976 13.6984 8.36107 13.6139 8.39134C13.5275 8.42251 13.4238 8.43804 13.3032 8.43804Z" fill="white"/>
<path d="M3.92782 7.18688L3.29592 8.40747H2.83496L3.52903 7.10237C3.36673 7.03113 3.23545 6.92645 3.13548 6.78834C3.03521 6.65022 2.98522 6.46249 2.98522 6.22488C2.98522 6.05864 3.01361 5.91243 3.07069 5.78613C3.12761 5.66009 3.20537 5.55528 3.30364 5.47209C3.40191 5.38891 3.51684 5.32668 3.64843 5.28502C3.78105 5.24324 3.92127 5.22213 4.0625 5.22267H4.65799V8.40747H4.25935V7.18688H3.92782ZM4.25935 5.50791H4.04692C3.96747 5.50791 3.88972 5.52052 3.81397 5.54586C3.73822 5.5712 3.6705 5.6114 3.61187 5.66659C3.55325 5.72165 3.50573 5.79462 3.46948 5.8855C3.43307 5.97638 3.41518 6.08875 3.41518 6.22289C3.41518 6.35091 3.43137 6.45825 3.46423 6.54462C3.49709 6.63099 3.54199 6.70117 3.59891 6.75464C3.65599 6.80824 3.72326 6.84618 3.80101 6.8686C3.88034 6.89111 3.96338 6.9024 4.04692 6.90204H4.25935V5.50791Z" fill="#FF0000"/>
</g>
<defs>
<clipPath id="clip0">
<path d="M0.000976562 0H23.6208V13.0002H0.000976562V0Z" fill="white"/>
</clipPath>
</defs>
</svg>
