<svg width="30" height="30" viewBox="0 0 30 30" fill="none" xmlns="http://www.w3.org/2000/svg">
<path d="M10.6482 25C10.7282 25.0001 10.8074 24.9836 10.881 24.9513C10.9546 24.9191 11.0211 24.8718 11.0766 24.8123L19.833 15.4524C19.9401 15.3385 20 15.1861 20 15.0274C20 14.8688 19.9401 14.7164 19.833 14.6024L11.0385 5.20452C10.9852 5.14306 10.9204 5.09332 10.848 5.05825C10.7757 5.02319 10.6972 5.00352 10.6172 5.00043C10.5373 4.99734 10.4576 5.01089 10.3829 5.04027C10.3082 5.06965 10.24 5.11425 10.1824 5.17142C10.1248 5.22859 10.0789 5.29714 10.0476 5.37298C10.0162 5.44882 10.0001 5.5304 10 5.61284C9.99994 5.69527 10.016 5.77687 10.0472 5.85276C10.0785 5.92865 10.1242 5.99727 10.1818 6.05453L18.5777 15.0268L10.2198 23.9611C10.1388 24.0477 10.0843 24.157 10.0631 24.2754C10.0419 24.3937 10.055 24.5159 10.1006 24.6266C10.1463 24.7374 10.2226 24.8318 10.3199 24.8982C10.4173 24.9646 10.5315 25 10.6482 25Z" fill="white"/>
</svg>
