<svg width="66" height="66" viewBox="0 0 66 66" fill="none" xmlns="http://www.w3.org/2000/svg">
<path fill-rule="evenodd" clip-rule="evenodd" d="M36.3451 23.1952C41.6363 21.8099 39.7171 13.0915 54.102 11.2997C53.6356 15.5309 51.5819 19.2124 49.582 22.6832C46.3714 28.2545 42.8918 26.2217 40.1745 29.8958C40.3628 29.9861 40.6229 30.0464 40.7753 30.0991L43.8873 31.0477C38.4346 36.9804 41.2237 36.3329 31.2781 38.7873C31.7803 41.716 31.1794 39.4272 33.4214 41.7461C28.7311 43.9746 25.2425 47.6788 17.3326 48.123C21.3862 41.5202 32.6412 30.3927 39.0355 25.6721L46.3804 19.8599C45.5284 19.4308 46.784 18.4069 43.7707 20.0782C43.4658 20.2514 41.9771 21.456 41.4838 21.7873L32.6412 28.6008C28.489 32.0114 15.9515 46.956 15.2968 47.4379C12.1042 40.9179 21.171 30.2421 24.4174 26.4777C26.3725 29.0827 24.0049 28.4954 27.3411 29.4064C28.202 24.5278 27.2424 21.2527 36.2285 18.6252C35.6455 20.9365 35.0985 21.3581 36.3451 23.1952ZM43.8335 28.7815C48.4431 27.3661 49.8421 25.5592 51.9945 21.7195C56.7296 13.2797 59.2497 7.30941 47.9588 11.2319C43.1788 12.8882 43.3312 13.2496 40.4883 16.2536C38.5243 16.7882 42.3358 14.9963 37.6634 16.1407C37.0535 16.2913 34.112 17.6088 33.834 17.7368C25.5833 21.6216 29.1616 21.1473 24.2739 24.5428C22.1395 26.026 19.8796 29.2031 18.337 31.4317C7.36901 47.3249 16.7676 45.8869 12.6423 51.5109C11.1177 53.5889 9.09089 55.1474 10.4451 56.9091C12.7409 54.9365 12.7589 53.7395 14.6153 51.4131C18.068 47.1066 19.198 53.3103 35.6366 41.7536C35.0626 39.495 36.3361 41.3998 34.0223 39.4724C39.9503 38.8174 42.4703 36.2877 45.7616 31.2284C46.8468 29.557 45.6988 29.1504 43.8335 28.774V28.7815Z" fill="#63DBC5"/>
</svg>
