<svg width="66" height="66" viewBox="0 0 66 66" fill="none" xmlns="http://www.w3.org/2000/svg">
<path d="M55.5 22.9519C55.5 22.7607 55.4775 22.5614 55.4326 22.3542C55.3877 22.147 55.3353 21.9558 55.2754 21.7804C55.2155 21.6051 55.1331 21.4377 55.0283 21.2783C54.9235 21.1189 54.8037 20.9675 54.6689 20.8241C54.5342 20.6806 54.3919 20.5531 54.2422 20.4415C54.0924 20.33 53.9277 20.2343 53.748 20.1546C53.5684 20.0749 53.3887 20.0112 53.209 19.9634C53.0293 19.9156 52.8346 19.8916 52.625 19.8916H46.9788C49.0717 18.7584 49.7949 16.7198 49.7949 14.6796C49.7949 13.7232 49.6302 12.8466 49.3008 12.0497C48.9714 11.2527 48.3799 10.5673 47.5264 9.99352C46.6729 9.41971 45.6172 9.13281 44.3594 9.13281C43.8503 9.13281 43.3337 9.1886 42.8096 9.30017C42.2855 9.41175 41.7839 9.5791 41.3047 9.80225C40.8255 10.0254 40.3538 10.2725 39.8896 10.5434C39.4255 10.8144 38.9762 11.1252 38.542 11.4758C38.1077 11.8265 37.6885 12.1851 37.2842 12.5517C36.8799 12.9183 36.4906 13.3168 36.1162 13.7472C35.7419 14.1775 35.39 14.5919 35.0605 14.9904C34.7311 15.3889 34.4092 15.8033 34.0947 16.2336C33.7803 16.664 33.5033 17.0545 33.2637 17.4052C33.0241 17.7558 32.7995 18.1224 32.5898 18.505C31.9609 17.4849 31.2796 16.5046 30.5459 15.5642C29.8122 14.6238 28.9212 13.6356 27.873 12.5995C26.8249 11.5635 25.6719 10.7267 24.4141 10.0892C23.1562 9.45159 21.9134 9.13281 20.6855 9.13281C19.4277 9.13281 18.3721 9.41971 17.5186 9.99352C16.665 10.5673 16.0736 11.2527 15.7441 12.0497C15.4147 12.8466 15.25 13.7232 15.25 14.6796C15.25 16.7198 15.9517 19.248 18.2517 19.9395H12.375C11.5664 19.9395 10.8851 20.2343 10.3311 20.8241C9.77702 21.4138 9.5 22.139 9.5 22.9998V32.1328H12.4199V52.0725C12.4199 52.9013 12.6969 53.6186 13.251 54.2243C13.805 54.83 14.4863 55.1328 15.2949 55.1328H49.75C50.5586 55.1328 51.2399 54.83 51.7939 54.2243C52.348 53.6186 52.625 52.9013 52.625 52.0725V32.1328H55.5V22.9519ZM44.3594 11.4758C46.0964 11.4758 47.5264 13.0219 47.5264 14.6796C47.5264 15.7634 47.3536 16.7596 46.6648 17.5725C45.976 18.3854 45.115 18.9831 44.0818 19.3657C43.0486 19.7482 41.948 19.9395 40.78 19.9395L34.0947 19.8916C34.6637 18.9991 35.4723 17.9981 36.1162 17.1852C36.7601 16.3723 37.4414 15.5499 38.25 14.737C39.0586 13.9241 40.0924 13.0458 41.0058 12.5517C41.9193 12.0576 42.6223 11.4758 44.3594 11.4758ZM21.3833 11.4727C22.9958 11.6034 24.7143 12.7358 26.3764 14.2978C28.0385 15.8599 29.6886 17.8833 30.9764 19.8916H24.22C22.3932 19.8916 20.761 19.4135 19.3235 18.4571C17.886 17.5008 17.5186 16.13 17.5186 14.5361C17.5186 13.006 18.7157 11.5053 20.2431 11.4416C20.3916 11.4354 21 11.4416 21.3833 11.4727ZM53.545 30.0518H33.4764V21.9726H52.545C53.0973 21.9726 53.545 22.4204 53.545 22.9726V30.0518ZM11.455 22.9726C11.455 22.4204 11.9027 21.9726 12.455 21.9726H31.5917V30.0336L11.455 30.0518V22.9726ZM14.3749 32.1328L31.5917 32.1146V53.0336L15.8765 53.0502C15.0475 53.0511 14.3749 52.3793 14.3749 51.5502V32.1328ZM50.67 51.5518C50.67 52.3802 49.9984 53.0518 49.17 53.0518H33.4764V32.1328H50.67V51.5518Z" fill="#63DBC5"/>
</svg>
