<svg width="66" height="66" viewBox="0 0 66 66" fill="none" xmlns="http://www.w3.org/2000/svg">
<path d="M58.121 33.7604C56.2034 31.8652 55.1128 29.6212 54.3648 27.2299C52.0469 28.4129 49.8531 29.5322 47.7799 30.5918C45.5104 23.3345 46.1301 14.8491 38.4801 9.875L7.77734 16.2023C20.7585 24.6394 17.2497 46.4916 26.5121 54.6979C27.2865 55.3841 30.1875 56.6821 34.2199 55.1794C40.4691 52.8503 38.1783 50.2084 57.3271 37.6175C59.016 36.5058 59.1597 34.8038 58.121 33.7604ZM27.0731 41.1625C28.122 44.5167 35.1915 46.3336 33.9709 51.3277C33.2297 54.3644 29.0664 54.9785 27.629 53.6767C23.8465 50.2528 22.2817 44.0919 20.6667 37.5301C18.7976 29.937 16.8732 22.1155 11.2071 16.9651L38.1095 11.4221C42.7717 14.7732 43.7739 19.7665 44.8321 25.0419C45.2495 27.1234 45.694 29.2562 46.3655 31.3147L27.0731 41.1625Z" fill="#63DBC5"/>
</svg>
