<svg xmlns="http://www.w3.org/2000/svg" xmlns:xlink="http://www.w3.org/1999/xlink" style="display:none">
<defs>

<symbol id="icn-left" viewBox="0 0 12 20">
<path d="M11.835 1.8701L10.055 0.100098L0.165039 10.0001L10.065 19.9001L11.835 18.1301L3.70504 10.0001L11.835 1.8701Z" fill="currentColor"/>
</symbol>

<symbol id="icn-right" viewBox="0 0 12 20">
<path d="M0.165039 18.1301L1.93504 19.9001L11.835 10.0001L1.93504 0.100098L0.165039 1.8701L8.29504 10.0001L0.165039 18.1301H0.165039Z" fill="currentColor"/>
</symbol>

<symbol id="icn-fb" viewBox="0 0 16 16">
<path d="M11.7228 8.99999L12.1673 6.10449H9.38883V4.22549C9.38883 3.43349 9.77683 2.66099 11.0213 2.66099H12.2843V0.195988C12.2843 0.195988 11.1383 0.000488281 10.0423 0.000488281C7.75433 0.000488281 6.25883 1.38749 6.25883 3.89799V6.10499H3.71533V9.00049H6.25883V16.0005H9.38883V9.00049L11.7228 8.99999Z" fill="currentColor"/>
</symbol>

<symbol id="icn-in" viewBox="0 0 16 16">
<path d="M4.134 14H1.2315V4.653H4.134V14ZM2.681 3.378C1.753 3.378 1 2.609 1 1.681C1 1.23517 1.1771 0.807602 1.49235 0.492353C1.8076 0.177105 2.23517 0 2.681 0C3.12683 0 3.5544 0.177105 3.86965 0.492353C4.1849 0.807602 4.362 1.23517 4.362 1.681C4.362 2.609 3.609 3.378 2.681 3.378ZM14.997 14H12.101V9.45C12.101 8.3655 12.079 6.975 10.592 6.975C9.083 6.975 8.8515 8.153 8.8515 9.372V14H5.952V4.653H8.7355V5.928H8.776C9.1635 5.1935 10.11 4.4185 11.522 4.4185C14.4595 4.4185 14.9995 6.353 14.9995 8.8655V14H14.997Z" fill="currentColor"/>
</symbol>

<symbol id="icn-whatsapp" viewBox="0 0 19 19">
<path d="M13.2389 11.131C13.0366 11.0271 12.0291 10.5335 11.8417 10.4667C11.6543 10.3962 11.517 10.3628 11.3815 10.5706C11.2442 10.7766 10.8546 11.2349 10.7321 11.374C10.6134 11.5113 10.4928 11.528 10.2905 11.426C9.08818 10.8248 8.29961 10.3535 7.50732 8.99346C7.29766 8.63164 7.71699 8.65762 8.1085 7.87646C8.17529 7.73916 8.14189 7.62227 8.08994 7.51836C8.03799 7.41445 7.62979 6.40879 7.45908 5.99873C7.29395 5.5998 7.12324 5.65547 6.99893 5.64805C6.88018 5.64062 6.74473 5.64062 6.60742 5.64062C6.47012 5.64062 6.24932 5.69258 6.06191 5.89482C5.87451 6.10078 5.3457 6.59619 5.3457 7.60186C5.3457 8.60752 6.07861 9.58164 6.17881 9.71895C6.28271 9.85625 7.62051 11.9195 9.67451 12.8083C10.9733 13.3687 11.4817 13.4169 12.1312 13.3204C12.5264 13.261 13.3409 12.8269 13.5098 12.3463C13.6786 11.8676 13.6786 11.4575 13.6285 11.3722C13.5784 11.2813 13.4411 11.2293 13.2389 11.131Z" fill="currentColor"/>
<path d="M17.1669 6.27891C16.7476 5.28252 16.1464 4.38818 15.3801 3.62002C14.6138 2.85371 13.7194 2.25068 12.7212 1.8332C11.7007 1.40459 10.6171 1.1875 9.50011 1.1875H9.463C8.33858 1.19307 7.24942 1.41572 6.2252 1.85361C5.23624 2.27666 4.34932 2.87783 3.59044 3.64414C2.83155 4.41045 2.23595 5.30107 1.82403 6.29375C1.39727 7.32168 1.18204 8.41455 1.18761 9.53896C1.19317 10.8267 1.50118 12.1051 2.07823 13.248V16.0684C2.07823 16.5396 2.46046 16.9219 2.93175 16.9219H5.75391C6.89688 17.4989 8.1753 17.8069 9.463 17.8125H9.50196C10.6134 17.8125 11.6914 17.5973 12.7064 17.1761C13.699 16.7623 14.5915 16.1686 15.356 15.4097C16.1223 14.6508 16.7253 13.7639 17.1465 12.7749C17.5844 11.7507 17.807 10.6615 17.8126 9.53711C17.8182 8.40713 17.5992 7.31055 17.1669 6.27891V6.27891ZM14.3633 14.4059C13.0626 15.6936 11.337 16.4023 9.50011 16.4023H9.46856C8.34971 16.3968 7.23829 16.1185 6.25675 15.5952L6.10089 15.5117H3.48839V12.8992L3.40489 12.7434C2.88165 11.7618 2.60333 10.6504 2.59776 9.53154C2.59034 7.68164 3.29727 5.94492 4.59425 4.63682C5.88936 3.32871 7.62052 2.60508 9.47042 2.59766H9.50196C10.4297 2.59766 11.3296 2.77764 12.1775 3.13389C13.0051 3.48086 13.7473 3.97998 14.3856 4.61826C15.022 5.25469 15.523 5.99873 15.8699 6.82627C16.2299 7.6835 16.4099 8.59268 16.4062 9.53154C16.395 11.3796 15.6695 13.1107 14.3633 14.4059V14.4059Z" fill="currentColor"/>
</symbol>

<symbol id="icn-vk" fill="none" viewBox="0 0 17 17">
<path fill-rule="evenodd" clip-rule="evenodd" d="M15.1318 10.4534C15.1318 10.4534 16.5062 11.8108 16.8462 12.439C16.8528 12.448 16.858 12.4581 16.8615 12.4687C17.0001 12.7008 17.0341 12.8827 16.9661 13.017C16.8513 13.2388 16.4629 13.3502 16.3311 13.3595H13.9018C13.7327 13.3595 13.3808 13.3153 12.9524 13.0195C12.6251 12.7909 12.2996 12.4143 11.9842 12.0463C11.5133 11.4997 11.1062 11.0254 10.6939 11.0254C10.6419 11.0253 10.5901 11.0339 10.5409 11.0509C10.229 11.1495 9.83288 11.5941 9.83288 12.7781C9.83288 13.1487 9.54048 13.3595 9.33563 13.3595H8.22298C7.84388 13.3595 5.87018 13.2269 4.12003 11.3816C1.97548 9.12228 0.0493765 4.59008 0.0306765 4.55013C-0.0891735 4.25688 0.162427 4.09708 0.434427 4.09708H2.88753C3.21648 4.09708 3.32358 4.29598 3.39838 4.47448C3.48508 4.67933 3.80638 5.49873 4.33338 6.41928C5.18678 7.91698 5.71123 8.52643 6.13028 8.52643C6.20901 8.52666 6.28641 8.50613 6.35468 8.46693C6.90208 8.16603 6.80008 6.21103 6.77458 5.80813C6.77458 5.72993 6.77373 4.93518 6.49323 4.55098C6.29263 4.27558 5.95093 4.16847 5.74438 4.12937C5.79963 4.04947 5.91693 3.92707 6.06738 3.85482C6.44223 3.66782 7.11968 3.64062 7.79203 3.64062H8.16518C8.89448 3.65083 9.08318 3.69757 9.34838 3.76472C9.88218 3.89222 9.89238 4.23818 9.84563 5.41628C9.83203 5.75288 9.81758 6.13198 9.81758 6.57823C9.81758 6.67343 9.81333 6.77968 9.81333 6.88763C9.79718 7.49198 9.77593 8.17283 10.2026 8.45248C10.258 8.48695 10.3219 8.50521 10.3871 8.50518C10.535 8.50518 10.9778 8.50518 12.1789 6.44393C12.7059 5.53358 13.1139 4.46003 13.1419 4.37928C13.1657 4.33423 13.2371 4.20757 13.3238 4.15657C13.3855 4.12376 13.4546 4.10737 13.5244 4.10898H16.4102C16.7247 4.10898 16.938 4.15658 16.9797 4.27558C17.0494 4.46853 16.9661 5.05757 15.6486 6.83917C15.4267 7.13582 15.2321 7.39253 15.0612 7.61693C13.867 9.18433 13.867 9.26338 15.1318 10.4534V10.4534Z" fill="currentColor"/>
</symbol>

<symbol id="icn-search" fill="none" viewBox="0 0 18 18">
<path d="M17.666 17.6657C17.4434 17.8886 17.1768 18 16.8662 18C16.5557 18 16.2891 17.8886 16.0664 17.6657L12.5859 14.1818C11.1797 15.2258 9.60938 15.7478 7.875 15.7478C6.80859 15.7478 5.78906 15.5396 4.81641 15.1232C3.84375 14.7067 3.00586 14.1466 2.30273 13.4428C1.59961 12.739 1.04004 11.9032 0.624023 10.9355C0.208008 9.96774 0 8.94721 0 7.8739C0 6.80059 0.208008 5.77713 0.624023 4.80352C1.04004 3.82991 1.59961 2.99413 2.30273 2.29619C3.00586 1.59824 3.84375 1.04106 4.81641 0.624633C5.78906 0.208211 6.80859 0 7.875 0C8.94141 0 9.96094 0.208211 10.9336 0.624633C11.9062 1.04106 12.7441 1.59824 13.4473 2.29619C14.1504 2.99413 14.71 3.82991 15.126 4.80352C15.542 5.77713 15.75 6.79765 15.75 7.8651C15.75 9.6129 15.2285 11.1848 14.1855 12.5806L17.666 16.0645C17.8887 16.2874 18 16.5543 18 16.8651C18 17.176 17.8887 17.4428 17.666 17.6657ZM7.875 2.2522C6.85547 2.2522 5.91504 2.50147 5.05371 3C4.19238 3.49853 3.50977 4.18182 3.00586 5.04985C2.50195 5.91789 2.25 6.85924 2.25 7.8739C2.25 8.88856 2.50195 9.82991 3.00586 10.6979C3.50977 11.566 4.19238 12.2493 5.05371 12.7478C5.91504 13.2463 6.85547 13.4956 7.875 13.4956C8.89453 13.4956 9.83496 13.2463 10.6963 12.7478C11.5576 12.2493 12.2402 11.566 12.7441 10.6979C13.248 9.82991 13.5 8.88856 13.5 7.8739C13.5 6.85924 13.248 5.91789 12.7441 5.04985C12.2402 4.18182 11.5576 3.49853 10.6963 3C9.83496 2.50147 8.89453 2.2522 7.875 2.2522Z" fill="currentColor"/>
</symbol>

<symbol id="icn-sub"  viewBox="0 0 8 4">
<path d="M9.53674e-07 0.259155C-5.62668e-05 0.291152 0.00656557 0.32283 0.0194664 0.352278C0.0323677 0.381726 0.0512805 0.408334 0.0750666 0.430501L3.81902 3.9331C3.8646 3.97593 3.92557 3.99988 3.98903 3.99988C4.05248 3.99988 4.11345 3.97593 4.15903 3.9331L7.91819 0.415271C7.94277 0.39395 7.96267 0.36804 7.9767 0.33909C7.99073 0.31014 7.99859 0.278744 7.99983 0.246778C8.00106 0.214812 7.99564 0.182933 7.98389 0.153045C7.97214 0.123157 7.9543 0.0958742 7.93143 0.072827C7.90857 0.0497798 7.88114 0.0314407 7.85081 0.0189069C7.82047 0.00637304 7.78784 -9.88536e-05 7.75487 -0.000122008C7.72189 -0.000145162 7.68925 0.0062813 7.6589 0.0187725C7.62854 0.0312637 7.60109 0.0495632 7.57819 0.0725783L3.98927 3.43096L0.41556 0.0878097C0.380904 0.0554025 0.337186 0.0336016 0.289851 0.0251236C0.242516 0.0166457 0.193656 0.021865 0.149356 0.0401309C0.105057 0.0583968 0.067275 0.0889025 0.0407176 0.127848C0.0141597 0.166794 0 0.212459 9.53674e-07 0.259155Z" fill="currentColor"/>
</symbol>


<symbol id="icn-close" viewBox="0 0 15 15" fill="none">
<path d="M13.7383 1L0.999374 13.7389" stroke="currentColor" stroke-width="1.5" />
<path d="M1.13086 1.26172L13.8698 14.0006" stroke="currentColor" stroke-width="1.5" />
</symbol>

<symbol id="icn-sep" viewBox="0 0 10 10" fill="none">
<path d="M4 2L7 5L4 8" stroke="currentColor" stroke-width="0.5" stroke-linecap="round" stroke-linejoin="round"/>
</symbol>

<symbol id="icn-headset" viewBox="0 0 16 16" fill="none">
<path d="M14 13H12.5C12.3646 13 12.2474 12.9505 12.1484 12.8516C12.0495 12.7526 12 12.6354 12 12.5V7.5C12 7.36458 12.0495 7.2474 12.1484 7.14844C12.2474 7.04948 12.3646 7 12.5 7H13C13 5.45833 12.5703 4.23958 11.7109 3.34375C10.8516 2.44792 9.61458 2 8 2C6.38542 2 5.14844 2.44792 4.28906 3.34375C3.42969 4.23958 3 5.45833 3 7H3.5C3.63542 7 3.7526 7.04948 3.85156 7.14844C3.95052 7.2474 4 7.36458 4 7.5V12.5C4 12.6354 3.95052 12.7526 3.85156 12.8516C3.7526 12.9505 3.63542 13 3.5 13H3C3 13.5521 3.19531 14.0234 3.58594 14.4141C3.97656 14.8047 4.44792 15 5 15H6C6 14.7188 6.09635 14.4818 6.28906 14.2891C6.48177 14.0964 6.71875 14 7 14H8C8.28125 14 8.51823 14.0964 8.71094 14.2891C8.90365 14.4818 9 14.7161 9 14.9922C9 15.2682 8.90365 15.5052 8.71094 15.7031C8.51823 15.901 8.28125 16 8 16H5C4.16667 16 3.45833 15.7083 2.875 15.125C2.29167 14.5417 2 13.8333 2 13C1.44792 13 0.976562 12.7083 0.585938 12.125C0.195312 11.5417 0 10.8333 0 10C0 9.45833 0.0911458 8.95833 0.273438 8.5C0.455729 8.04167 0.697917 7.68229 1 7.42188V7C1 6.05208 1.1849 5.14583 1.55469 4.28125C1.92448 3.41667 2.42188 2.67188 3.04688 2.04688C3.67188 1.42188 4.41667 0.924479 5.28125 0.554688C6.14583 0.184896 7.05208 0 8 0C8.94792 0 9.85417 0.184896 10.7188 0.554688C11.5833 0.924479 12.3281 1.42188 12.9531 2.04688C13.5781 2.67188 14.0755 3.41667 14.4453 4.28125C14.8151 5.14583 15 6.05208 15 7V7.42188C15.3021 7.68229 15.5443 8.04167 15.7266 8.5C15.9089 8.95833 16 9.45833 16 10C16 10.8333 15.8047 11.5417 15.4141 12.125C15.0234 12.7083 14.5521 13 14 13Z" fill="currentColor"/>
</symbol>

<symbol id="icn-book" viewBox="0 0 12 14" fill="none">
<path d="M0 2.33203V11.6654C0 13.1327 1.196 13.6654 2 13.6654H12V12.332H2.008C1.7 12.324 1.33333 12.2027 1.33333 11.6654C1.33333 11.128 1.7 11.0067 2.008 10.9987H12V1.66536C12 0.930031 11.402 0.332031 10.6667 0.332031H2C1.196 0.332031 0 0.864698 0 2.33203Z" fill="currentColor"/>
</symbol>

<symbol id="icn-text" viewBox="0 0 16 16" fill="none">
<g><path d="M3.5 4.75H12.5V5.75H3.5V4.75Z" fill="currentColor"/>
<path d="M3.5 7.5H12.5V8.5H3.5V7.5Z" fill="currentColor"/>
<path d="M3.5 10.25H8.25V11.25H3.5V10.25Z" fill="currentColor"/>
<path d="M1 1.5V14.5H15V1.5H1ZM14 13.5H2V2.5H14V13.5Z" fill="currentColor "/></g>
</symbol>

<symbol id="icn-star" viewBox="0 0 12 14" fill="none">
<path d="M10.5779 10.0088L11.9935 14.3552L8.29422 11.663C8.11884 11.5354 7.88116 11.5354 7.70578 11.663L4.00651 14.3552L5.42209 10.0088C5.48977 9.80101 5.41463 9.57332 5.23656 9.4466L1.56504 6.83398H6.06667C6.28373 6.83398 6.476 6.69393 6.54257 6.48733L8 1.96428L9.45743 6.48733C9.524 6.69393 9.71627 6.83398 9.93333 6.83398H14.435L10.7634 9.4466C10.5854 9.57332 10.5102 9.80101 10.5779 10.0088Z" stroke="#DE325B" stroke-linejoin="round"/>
</symbol>

<symbol id="icn-clock" viewBox="0 0 14 14" fill="none">
<path d="M6.98825 13.3872C10.5167 13.3872 13.3771 10.5268 13.3771 6.99826C13.3771 3.46978 10.5167 0.609375 6.98825 0.609375C3.45977 0.609375 0.599365 3.46978 0.599365 6.99826C0.599365 10.5268 3.45977 13.3872 6.98825 13.3872Z" stroke="currentColor" stroke-miterlimit="10" stroke-linecap="round" stroke-linejoin="round"/>
<path d="M7 2.27734V6.99957" stroke="currentColor" stroke-miterlimit="10" stroke-linecap="round" stroke-linejoin="round"/>
<path d="M10.2073 7H6.99976" stroke="currentColor" stroke-miterlimit="10" stroke-linecap="round" stroke-linejoin="round"/>
</symbol>

<symbol id="icn-people" viewBox="0 0 16 10" fill="none">
<path fill-rule="evenodd" clip-rule="evenodd" d="M7.26567 2.14289C7.26567 3.32862 6.29838 4.28578 5.0911 4.28578C3.88381 4.28578 2.90926 3.32862 2.90926 2.14289C2.90926 0.957156 3.88381 0 5.0911 0C6.29838 0 7.26567 0.957156 7.26567 2.14289ZM13.0838 2.14289C13.0838 3.32862 12.1165 4.28578 10.9093 4.28578C9.70198 4.28578 8.72742 3.32862 8.72742 2.14289C8.72742 0.957156 9.70198 0 10.9093 0C12.1165 0 13.0838 0.957156 13.0838 2.14289ZM5.09096 5.71422C3.3964 5.71422 0 6.54995 0 8.21426V10H10.1819V8.21426C10.1819 6.54995 6.78552 5.71422 5.09096 5.71422ZM10.2036 5.74994C10.4582 5.72851 10.6982 5.71422 10.9091 5.71422C12.6036 5.71422 16 6.54995 16 8.21426V10H11.6364V8.21426C11.6364 7.1571 11.0473 6.34995 10.2036 5.74994Z" fill="currentColor"/>
</symbol>

<symbol id="icn-clear" viewBox="0 0 16 16" fill="none">
<path d="M11.5 11.5L4.5 4.5" stroke="currentColor" stroke-width="1.5" stroke-linecap="round" stroke-linejoin="round"/>
<path d="M11.5 4.5L4.5 11.5" stroke="currentColor" stroke-width="1.5" stroke-linecap="round" stroke-linejoin="round"/>
</symbol>

</defs>
</svg>
